<svg xmlns="http://www.w3.org/2000/svg" fill="none" viewBox="0 0 115 16"><mask id="logo_svg__a" width="14" height="14" x="0" y="1" maskUnits="userSpaceOnUse" style="mask-type:alpha"><path fill="#fff" fill-rule="evenodd" d="M13.432 1a1.75 1.75 0 1 0 0 3.5h5.833a3.5 3.5 0 0 0 3.5-3.5zM9.127 6.385a3.23 3.23 0 0 0-3.23 3.231h12.475a3.23 3.23 0 0 0 3.23-3.23zM.602 15a3.5 3.5 0 0 1 3.5-3.5h5.833a1.75 1.75 0 1 1 0 3.5zm14.584-3.5a1.75 1.75 0 1 0 0 3.5h1.166a2.917 2.917 0 0 0 2.917-2.917V11.5z" clip-rule="evenodd"/></mask><g mask="url(#logo_svg__a)"><path fill="#fff" d="M11.686 2.75c0-.966.783-1.75 1.75-1.75h9.334a3.5 3.5 0 0 1-3.5 3.5h-5.834a1.75 1.75 0 0 1-1.75-1.75"/><path fill="url(#logo_svg__b)" d="M11.686 2.75c0-.966.783-1.75 1.75-1.75h9.334a3.5 3.5 0 0 1-3.5 3.5h-5.834a1.75 1.75 0 0 1-1.75-1.75"/><path fill="url(#logo_svg__c)" d="M5.895 9.612a3.23 3.23 0 0 1 3.23-3.23h12.476a3.23 3.23 0 0 1-3.231 3.23z"/><path fill="#D7613A" d="M.602 14.996a3.5 3.5 0 0 1 3.5-3.5h5.833a1.75 1.75 0 1 1 0 3.5z"/><path fill="url(#logo_svg__d)" d="M13.436 13.246c0-.967.783-1.75 1.75-1.75h4.083v.583a2.917 2.917 0 0 1-2.917 2.917h-1.166a1.75 1.75 0 0 1-1.75-1.75"/></g><path fill="url(#logo_svg__e)" fill-rule="evenodd" d="M37.768 7.568h-6.171c-.078 0-.176.058-.195.156l-.313 1.504c-.02.078.04.156.117.156h3.77c-.625 2.773-2.012 3.808-4.14 3.808-2.266 0-3.477-1.523-3.477-3.828 0-3.515 2.11-6.581 5.136-6.581 1.7 0 2.93.957 3.145 2.617.02.098.097.156.175.156h2.149a.17.17 0 0 0 .156-.156C37.905 2.588 35.64.889 32.632.889c-4.414 0-7.753 3.925-7.753 8.475 0 3.496 2.226 5.742 5.78 5.742 3.672 0 6.29-2.11 7.246-7.382 0-.078-.059-.156-.137-.156m2.044 7.265h-2.03c-.079 0-.138-.078-.118-.157l1.62-6.718 1.466-6.64c.02-.097.117-.156.195-.156h2.03c.08 0 .138.078.118.156l-1.601 6.64-1.484 6.718c-.02.098-.118.157-.196.157m35.3 0h-2.128c-.078 0-.136-.078-.117-.157l1.621-6.679 1.465-6.679c.02-.097.117-.156.195-.156h8.495c.078 0 .137.078.117.156l-.332 1.563c-.02.097-.117.156-.195.156h-6.23L76.93 7.255h5.996c.078 0 .136.078.117.157l-.332 1.562c-.02.098-.117.156-.195.156h-5.996l-1.21 5.546c-.02.098-.118.157-.196.157m7.911 0h2.031c.078 0 .176-.059.196-.157l1.484-6.718 1.601-6.64c.02-.078-.039-.156-.117-.156h-2.03c-.08 0-.177.059-.196.156l-1.465 6.64-1.62 6.718c-.02.079.038.157.116.157m4.598-4.004c0-3.652 2.383-6.288 5.742-6.288 2.617 0 4.394 1.62 4.394 4.218 0 3.555-2.344 6.308-5.703 6.308-2.597 0-4.433-1.62-4.433-4.238m2.383.157c0 1.582.761 2.421 2.128 2.421 1.953 0 3.242-1.816 3.242-4.745 0-1.602-.8-2.461-2.128-2.461-1.953 0-3.242 1.875-3.242 4.785m18.054 3.847h-2.441c-.079 0-.157-.078-.157-.156V6.65l-3.515 8.046a.24.24 0 0 1-.215.137h-2.441a.17.17 0 0 1-.156-.156l-.137-9.745c0-.078.078-.157.156-.157h1.836c.078 0 .156.079.156.157l-.332 8.065 3.535-8.085a.24.24 0 0 1 .215-.137h2.519c.078 0 .156.079.156.157l-.156 7.87 3.379-7.89a.24.24 0 0 1 .215-.137h2.089c.078 0 .117.079.098.137l-4.589 9.784a.24.24 0 0 1-.215.137m-39.314-5.97c-1.186-.32-2.222-.599-2.222-1.393 0-.761.703-1.406 1.933-1.406 1.308 0 2.11.645 2.129 1.621 0 .098.078.156.156.156h1.875c.078 0 .156-.078.175-.156.118-2.109-1.992-3.144-4.198-3.144-2.871 0-4.433 1.543-4.433 3.164 0 2 1.88 2.526 3.478 2.973 1.18.33 2.204.616 2.204 1.42 0 .782-.663 1.407-1.952 1.407-1.602 0-2.559-.723-2.52-1.953a.17.17 0 0 0-.156-.156h-1.972c-.078 0-.176.078-.176.156-.234 2.129 1.855 3.515 4.667 3.515 2.676 0 4.453-1.445 4.453-3.378 0-1.9-1.855-2.4-3.441-2.827M56.459 7.47c0 .794 1.036 1.073 2.222 1.392 1.587.428 3.442.927 3.442 2.827 0 1.933-1.778 3.378-4.453 3.378-2.812 0-4.902-1.386-4.668-3.515 0-.078.098-.156.176-.156h1.973c.078 0 .156.078.156.156-.04 1.23.918 1.953 2.52 1.953 1.288 0 1.952-.625 1.952-1.406 0-.805-1.025-1.091-2.204-1.421-1.598-.447-3.479-.973-3.479-2.973 0-1.621 1.562-3.164 4.433-3.164 2.207 0 4.316 1.035 4.199 3.144-.02.078-.098.156-.176.156h-1.875a.154.154 0 0 1-.156-.156c-.02-.976-.82-1.62-2.129-1.62-1.23 0-1.933.644-1.933 1.405m-9.63 5.879c-1.738.02-2.46-1.504-1.875-3.984.43-1.895 1.367-3.047 2.793-3.105h.312c1.582.078 2.324 1.464 1.738 4.003-.507 2.05-1.542 3.105-2.968 3.086m1.953 1.484h2.05c.078 0 .176-.059.196-.156l1.074-4.902 1.172-4.843c.02-.079-.04-.157-.118-.157h-2.07c-.078 0-.175.059-.195.157l-.312 1.523C50.05 5.245 48.938 4.6 47.433 4.6c-2.714 0-4.296 2.148-4.843 4.51-.82 3.458.684 5.899 3.379 5.899 1.19 0 2.167-.469 2.949-1.27l-.254.938c-.02.078.039.156.117.156" clip-rule="evenodd"/><defs><linearGradient id="logo_svg__b" x1="11.685" x2="22.77" y1="2.75" y2="2.75" gradientUnits="userSpaceOnUse"><stop stop-color="#D7613A"/><stop offset=".59" stop-color="#DC8946"/><stop offset="1" stop-color="#F9C078"/></linearGradient><linearGradient id="logo_svg__c" x1="5.895" x2="21.601" y1="7.997" y2="7.997" gradientUnits="userSpaceOnUse"><stop stop-color="#D7613A"/><stop offset=".59" stop-color="#DC8946"/><stop offset="1" stop-color="#F9C078"/></linearGradient><linearGradient id="logo_svg__d" x1="13.435" x2="19.269" y1="13.246" y2="13.246" gradientUnits="userSpaceOnUse"><stop stop-color="#D7613A"/><stop offset=".59" stop-color="#DC8946"/><stop offset="1" stop-color="#F9C078"/></linearGradient><linearGradient id="logo_svg__e" x1="29.801" x2="125.596" y1="15.181" y2="-15.142" gradientUnits="userSpaceOnUse"><stop stop-color="#E0E0E3"/><stop offset="1" stop-color="#fff"/></linearGradient></defs></svg>